<svg width="350" height="300" xmlns="http://www.w3.org/2000/svg">
 <g>
  <title>Layer 1</title>
  <path fill="none" stroke="#000" id="svg_2" d="m178.5,155.36296c0,1 0.26855,2.07689 -1,6c-1.65686,5.12396 -4,10 -7,15c-3,5 -6,10 -10,16c-4,6 -7.60703,11.17572 -10,16c-2.59106,5.22363 -5,10 -8,14c-3,4 -3.34518,7.17697 -5,12c-1.45139,4.23007 -2.69125,8.07181 -4,13c-0.81165,3.05634 -2.49756,6.92578 -3,12c-0.49268,4.97568 -0.88135,9.02521 -2,14c-0.90457,4.02264 -1.49347,6.87857 -2,10c-0.64072,3.94836 1.19028,6.88153 3,10c1.12234,1.93399 2,2 3,2c1,0 2.03629,0.26694 3,0c5.61938,-1.55649 13.77515,-7.19919 20,-14c5.80814,-6.34552 7.54895,-12.81403 9,-18c1.63904,-5.85779 1.49875,-12.94672 2,-20c0.49622,-6.98239 0,-12 0,-17c0,-4 0,-10 0,-16c0,-6 1,-13 2,-20c1,-7 1.56952,-15.133 3,-19c1.55161,-4.19434 1.88135,-8.02521 3,-13c0.90457,-4.02266 4,-8 3,-8c-1,0 -0.9664,7.01268 -4,15c-4.94534,13.0209 -9.41931,26.22119 -15,40c-4.53595,11.19934 -6.69446,19.08264 -9,27c-1.76828,6.07233 -2,13 -2,19c0,5 -0.49622,8.90778 -1,13c-0.61093,4.96252 -1.08127,9.34506 1,14c2.04086,4.56454 3.0979,6.82443 5,8c0.85065,0.52573 2.1731,0.14728 3,-1c3.92236,-5.44199 10.19577,-13.22961 15,-22c4.10474,-7.49341 5.49829,-15.93796 6,-22c0.41241,-4.98297 0,-11 0,-18c0,-7 0,-14 0,-21c0,-6 0,-12 0,-19c0,-7 0,-15 0,-19c0,-3 -0.06982,-1.01123 -1,5c-2.16263,13.9758 -3.91879,27.01276 -6,40c-1.92496,12.01227 -3,23 -3,32c0,9 -0.78345,18.13748 1,26c1.39905,6.16788 3.76859,12.61292 6,18c1.57785,3.80927 2.4588,6.69345 3,8c0.38269,0.92389 1.35815,-0.80716 5,-8c4.44885,-8.78677 7.99399,-16.83551 9,-26c0.87292,-7.95224 0,-16 0,-22c0,-7 -0.76266,-15.05042 -3,-25c-1.80911,-8.04532 -3.64072,-17.06082 -5,-24c-1.58521,-8.09241 -4,-15 -6,-20c-2,-5 -3.9176,-6.38687 -5,-9c-0.76538,-1.84776 -1,-4 -1,-3c0,5 0.08267,12.99207 1,23c1.09912,11.99133 2.92038,27.15298 6,45c2.9697,17.2099 8.87839,31.0495 13,41c2.91443,7.03607 6.14774,13.94342 8,19c2.17538,5.93866 2.69345,10.5412 4,10c0.92389,-0.38269 0.09882,-1.98828 1,-10c1.12335,-9.98691 1,-19 1,-26c0,-9 -3.73694,-20.09201 -7,-29c-3.70453,-10.11319 -6.69446,-18.08264 -9,-26c-2.6524,-9.10849 -5.64505,-17.1113 -8,-24c-1.74197,-5.09564 -3.48627,-9.82376 -4,-12c-0.22977,-0.97324 -1,-2 -1,-1c0,1 0.09882,8.98828 1,17c1.12335,9.98691 3.83133,21.0614 9,35c4.84265,13.05942 11.90936,24.05496 18,34c4.92706,8.0451 8.73325,14.23273 14,20c4.76828,5.22144 10.29871,7.82108 12,11c0.47186,0.88168 1,1 1,-4c0,-6 0.77475,-14.16946 -2,-25c-3.13928,-12.25336 -7.21405,-23.35144 -12,-33c-5.18213,-10.44727 -11.43967,-19.43625 -17,-26c-4.57056,-5.39536 -8.72961,-10.22885 -13,-15c-3.77267,-4.21509 -7.11215,-7.9183 -10,-12c-2.08246,-2.94336 -5,-6 -5,-5c0,3 3.44147,12.82544 8,25c4.43549,11.84595 9.06183,21.96317 15,32c7.07394,11.95657 14.52139,23.51382 22,30c7.55453,6.55203 16.04294,12.92578 23,17c5.03162,2.94666 9.29291,4.70709 10,4c0.70709,-0.70709 -0.37497,-8.16205 -3,-17c-2.43271,-8.19037 -7.86899,-19.0798 -14,-29c-6.85471,-11.09113 -15.41876,-20.67029 -24,-32c-7.37,-9.73053 -14,-20 -21,-27c-4,-4 -6,-7 -6,-6c0,1 -0.53711,9.15378 2,17c3.31369,10.24789 8.90994,21.06366 16,31c7.9003,11.07184 16.45755,20.51627 26,30c8.54092,8.48837 19.9791,16.04626 31,21c8.98312,4.03778 14.29291,7.70709 15,7c0.70709,-0.70709 -0.19577,-4.89172 -4,-12c-5.27554,-9.85742 -13,-20 -22,-30c-9,-10 -20,-20 -31,-31c-11,-11 -19,-19 -25,-25c-5,-5 -7.0979,-10.17557 -9,-9c-0.85065,0.52573 1.03122,7.40231 6,18c5.89752,12.57852 12.11356,23.66071 22,36c11.06223,13.80679 22.88474,23.20517 37,31c14.88165,8.21805 29.12268,15.64923 41,20c10.11319,3.70453 13,5 13,4c0,-2 -0.87161,-7.10547 -5,-12c-7.76376,-9.20456 -19.23215,-18.69016 -30,-27c-11.25171,-8.68326 -24,-17 -37,-25c-13,-8 -25.44547,-15.44797 -33,-22c-6.41025,-5.55957 -10,-10 -13,-13c-1,-1 -1,-2 -1,-1c0,1 2.76379,9.14557 9,19c7.71225,12.18692 20.12875,27.07928 36,39c16.19031,12.16037 33.86536,18.3244 48,24c7.92871,3.18369 12,5 12,4c0,-4 -1.73413,-13.79181 -9,-24c-8.62054,-12.11142 -21.90887,-20.14529 -33,-27c-14.88031,-9.19653 -29.65399,-17.57599 -41,-24c-9.72913,-5.50854 -18.29367,-9.4733 -24,-13c-4.25327,-2.62866 -6.21167,-4.71413 -9,-7c-1.09366,-0.89659 -1.58356,0.27505 1,5c4.12701,7.5477 11.24789,15.80746 23,26c15.10907,13.10403 32.39471,24.94421 46,33c13.46857,7.97482 24.45288,15.36578 38,20c12.6235,4.31827 22.79025,4.99023 30,6c2.97101,0.41611 3.76999,-1.10049 3,-4c-2.06934,-7.79218 -12.34763,-19.83936 -25,-29c-15.28278,-11.06512 -33.0842,-18.8338 -49,-27c-19.10312,-9.80157 -38.05942,-17.85974 -50,-23c-9.04623,-3.89429 -15.38687,-9.0824 -18,-8c-0.92389,0.38269 0.43967,6.43625 6,13c7.3129,8.6326 18.4462,16.94617 35,26c18.44522,10.08832 38.07428,15.81757 53,22c14.07211,5.82886 23.71201,9.98163 29,11c1.9639,0.3782 3,0 3,-1c0,-4 0.2298,-9.74402 -5,-17c-6.61523,-9.17816 -19.06604,-16.84821 -33,-23c-11.05368,-4.88016 -24.13184,-9.66983 -37,-15c-9.09915,-3.76898 -17.76303,-7.38055 -24,-11c-3.86798,-2.24469 -7.82376,-4.48625 -10,-5c-0.97324,-0.22975 1.37128,7.59219 8,14c9.20749,8.90067 21.79913,16.47839 38,23c18.78366,7.56131 38.13361,10.39584 53,14c14.1503,3.43054 25.83551,6.99399 35,8c1.98807,0.21823 2.53891,-1.23743 1,-4c-3.80081,-6.82303 -11.65399,-13.57599 -23,-20c-15.56662,-8.81366 -39.07089,-16.73456 -62,-23c-21.06796,-5.75687 -38.9791,-10.05466 -52,-15c-7.98734,-3.03358 -11.29291,-4.70711 -12,-4c-0.70709,0.70711 0.41611,3.63725 8,10c9.35132,7.84558 23.67792,14.85764 44,22c22.68155,7.97162 45.9259,14.29056 65,19c12.9527,3.19806 21.87869,6.12131 24,4c0.70709,-0.70709 0.47711,-4.8392 -4,-11c-6.24921,-8.59927 -18.5285,-16.05411 -31,-21c-19.40997,-7.69757 -37.11594,-9.40436 -54,-13c-16.13071,-3.4352 -28.94873,-7.30597 -40,-9c-7.96918,-1.22159 -10.22977,-1.97325 -10,-1c0.51373,2.17625 9.66873,9.74556 27,17c18.67819,7.81824 41.02856,12.88214 66,19c20.02338,4.90561 40.90265,9.69974 60,12c11.95517,1.44 18.52573,1.85065 18,1c-1.17557,-1.9021 -8.7478,-6.67358 -24,-12c-19.7131,-6.88425 -49.05139,-10.69119 -80,-16c-22.03879,-3.78046 -44.2261,-8.14932 -57,-12c-8.18039,-2.46597 -13,-3 -15,-3c-1,0 -1.45758,1.11084 -1,2c3.93628,7.6489 20.62778,11.75803 45,16c29.70309,5.16983 62.98099,5.23206 86,7c14.98917,1.15121 24.58578,3.41422 26,2c0.70709,-0.70709 1.4509,-4.59708 -5,-9c-10.44757,-7.13077 -31.0069,-7.94083 -57,-11c-25.00677,-2.94308 -48.01553,-4.75131 -66,-6c-12.01266,-0.83406 -23,-4 -23,-2c0,1 4.89841,1.75444 17,3c24.88852,2.56165 55.01773,0.9351 87,2c30.04993,1.00055 49.96597,3.49948 61,4c5.99384,0.27188 7,0 7,-1c0,-1 -0.67493,-4.07828 -9,-6c-20.5545,-4.74471 -52.00168,-2.93944 -89,-4c-33.00159,-0.94598 -59.97797,-3.49979 -77,-4c-5.99741,-0.17624 -7.22977,0.02675 -7,1c0.51373,2.17625 4.82605,6.89117 18,9c21.81302,3.49173 53.00458,3.54977 86,3c30.01248,-0.50006 46,-2 55,-2c1,0 1.86935,-4.12872 1,-7c-1.04483,-3.45085 -6.89746,-7.76373 -19,-9c-25.88452,-2.64407 -60.01941,-1.30618 -94,1c-26.01697,1.76572 -46.95331,3.49904 -55,4c-0.99808,0.06213 -0.56049,5.4081 8,8c15.43265,4.67264 45.04623,4.12411 83,2c35.07346,-1.96292 64.80313,-6.49426 82,-8c8.9657,-0.78502 11,-1 11,-2c0,-1 -5.957,-3.43469 -24,-5c-31.94244,-2.77116 -68.00552,-2.19623 -107,-1c-28.00467,0.8591 -41.58578,0.58578 -43,2c-0.70709,0.70711 5.97659,4.49976 22,5c25.98734,0.81131 65.08948,-2.42545 99,-8c22.06454,-3.6272 30.16019,-7.01291 30,-8c-0.50653,-3.12144 -9.84735,-7.49655 -32,-9c-33.92197,-2.30222 -68.10052,-0.6236 -101,5c-21.07193,3.60188 -27,7 -27,8c0,1 2.67081,6.09615 11,8c21.53531,4.92245 57.16269,3.11441 102,-4c38.16196,-6.05522 63.81641,-11.3744 71,-16c1.18903,-0.76564 1.64636,-2.23698 1,-3c-3.93173,-4.64127 -28.18805,-3.09288 -62,1c-38.35934,4.64333 -66.75864,14.85048 -83,19c-4.94034,1.26221 -2.18442,3.99245 6,5c17.86514,2.1993 45.10443,-5.63135 81,-16c30.09073,-8.69188 46.15097,-13.43463 48,-16c0.58472,-0.81125 -2.90048,-2.9978 -18,-4c-31.92975,-2.11928 -73.1188,1.27298 -112,8c-26.08881,4.51375 -34,8 -34,9c0,1 2.27618,5.68854 10,8c15.35822,4.59618 46.27264,1.11357 77,-7c33.3392,-8.80324 57.06372,-16.35109 61,-24c0.45758,-0.88916 0,-3 0,-4c0,-1 -3.02469,-1.76941 -15,-1c-31.19269,2.00412 -65.23782,12.26852 -97,23c-22.17773,7.49319 -30.76538,12.15224 -30,14c1.0824,2.61313 8.06311,5.32791 22,4c26.35703,-2.51132 61.89279,-15.04823 92,-30c19.66324,-9.76511 25,-17 25,-18c0,-2 0,-3 -1,-3c-3,0 -26.41342,3.3291 -70,15c-55.60837,14.88991 -100.7587,26.72925 -118,43c-4.24072,4.00201 -0.03833,9.2803 12,9c23.18854,-0.53995 61.07986,-12.77075 100,-33c33.02151,-17.16335 46.98163,-30.71201 48,-36c0.3782,-1.96391 -0.84296,-1.81319 -2,-1c-15.37152,10.80351 -52.45135,21.78104 -84,44c-16.85498,11.87056 -18.11661,18.76834 -14,19c15.10886,0.85022 47.97897,-14.37665 82,-36c27.8634,-17.70963 41.99023,-33.79025 43,-41c0.55481,-3.96133 0.70709,-5.29289 0,-6c-0.70709,-0.70711 -3.98465,3.01878 -15,12c-15.97778,13.02728 -37.70618,26.2471 -47,37c-3.81293,4.41153 -1.93472,5.35538 -1,5c11.25555,-4.27934 23.04663,-21.9558 42,-42c16.03955,-16.96269 23,-27 23,-31c0,-1 -0.96237,-0.96089 -2,0c-6.76459,6.26422 -24.91016,21.10831 -49,41c-21.9187,18.09891 -43.77377,30.22884 -41,36c0.4332,0.90131 1.75583,-0.25453 8,-6c12.53162,-11.53076 31.80304,-28.29588 51,-51c11.49573,-13.5959 13.70709,-19.29289 13,-20c-0.70709,-0.70711 -7.16336,2.73701 -25,14c-23.21765,14.66084 -53.6568,33.29912 -72,54c-7.17361,8.09564 -5.93329,12.89218 0,12c13.45026,-2.02249 32.85251,-14.91614 56,-34c21.85092,-18.01491 35.99512,-34.85159 37,-45c0.39417,-3.98053 -1.10556,-5.44722 -2,-5c-4.47214,2.23607 -17.57288,19.43456 -43,44c-29.513,28.51285 -58.78601,50.59798 -57,63c0.40317,2.79955 13.14713,1.55771 34,-15c26.60391,-21.12419 57.28073,-51.6721 71,-82c9.00162,-19.89902 7.80423,-32.64886 4,-35c-0.85065,-0.52573 -1.63287,0.34025 -10,9c-20.1507,20.85545 -55.36243,47.89189 -81,79c-15.52649,18.83952 -16.22272,28.75601 -14,29c8.19696,0.8998 22.50577,-12.50671 42,-33c19.51859,-20.51889 36.47421,-45.46089 39,-63c0.99777,-6.92853 -3.15225,-9.76537 -5,-9c-7.83939,3.24718 -18.6416,19.45341 -39,44c-22.73227,27.40881 -46.42426,54.90573 -50,72c-0.819,3.91525 6.94525,5.13866 18,-5c18.78949,-17.23239 40.40146,-44.76088 55,-76c10.85178,-23.22151 11.5484,-40.35141 7,-44c-2.46671,-1.97872 -5.22314,1.891 -11,14c-10.40549,21.81114 -25.06018,51.11958 -32,81c-3.64789,15.70647 -0.71677,23.27246 2,22c7.07288,-3.31276 17.26395,-23.40292 30,-52c12.23901,-27.48102 18.88489,-52.91164 12,-62c-3.521,-4.64787 -10.70804,-3.58266 -18,6c-12.26172,16.11366 -28.59186,45.68398 -46,79c-14.49753,27.74567 -19.7774,44.46512 -17,45c7.47836,1.4402 22.69888,-16.88112 40,-45c17.8172,-28.95767 31.7626,-58.57942 27,-77c-2.36148,-9.13364 -9.74695,-9.81492 -12,-7c-8.70364,10.87413 -14.65039,35.69363 -29,67c-13.62341,29.72209 -26.33563,53.9559 -21,60c0.6618,0.74968 7.07327,-3.95543 18,-22c18.1218,-29.92659 34.42328,-58.19775 37,-85c1.34317,-13.97125 -7.52786,-22.23607 -12,-20c-8.94427,4.47214 -15.80624,25.0425 -30,54c-13.81335,28.18141 -23.60043,54.14369 -17,63c3.21805,4.31789 15.01031,-2.70049 28,-25c15.53845,-26.67502 27.49017,-59.56659 22,-85c-3.30273,-15.30006 -14.45673,-21.2961 -20,-19c-6.53281,2.70598 -13.60751,20.45792 -22,48c-8.6958,28.5374 -13.07413,54.34224 -6,63c3.40735,4.17014 8.4007,0.14711 13,-13c6.57941,-18.80722 12.13275,-47.00615 11,-70c-0.69583,-14.12501 -5.87869,-20.70711 -8,-20c-4.24265,1.41422 -8,22 -17,51c-9,29 -20.13416,56.53822 -14,68c1.70129,3.17892 8.49469,0.20181 14,-14c8.8017,-22.70529 16.83572,-49.14714 14,-73c-1.71887,-14.4584 -9.18875,-19.58472 -10,-19c-5.13074,3.69803 -5.98492,26.71733 -9,55c-2.97003,27.85999 -3.72113,54.00415 5,61c3.21619,2.57994 6.42859,-1.92992 9,-19c3.60278,-23.91693 7.7316,-53.84042 1,-78c-4.20123,-15.07813 -13.47397,-21.29276 -15,-20c-9.28253,7.86349 -4.5347,35.93904 -5,67c-0.43463,29.01398 4.7002,51.76189 15,58c3.5267,2.13596 8.65109,-6.93953 10,-25c1.93793,-25.94696 -0.23782,-53.50226 -11,-70c-8.12231,-12.45102 -18.06296,-13.68979 -21,-8c-10.01794,19.40724 -12.81763,53.99498 -12,87c0.62112,25.07217 11.59836,42.89777 22,42c6.68335,-0.57684 11.58713,-16.72342 15,-41c3.76907,-26.81033 5.06821,-56.86635 -5,-78c-5.01569,-10.52818 -9.54419,-11.13307 -11,-4c-4.83664,23.69824 -9.83176,54.20181 -6,88c2.67767,23.61844 14.89664,36.71921 20,35c5.52582,-1.86151 5.84894,-20.06339 4,-47c-2.0047,-29.20584 -10.62341,-60.81953 -27,-77c-7.69446,-7.60231 -12.9407,-6.18178 -15,7c-3.71725,23.79459 -8.59146,59.29453 1,88c5.81772,17.41132 18.46786,23.41132 23,19c8.38754,-8.16391 9.87531,-30.27956 6,-57c-4.04184,-27.86868 -14.57596,-52.01283 -28,-60c-4.38202,-2.60725 -7.49985,2.98126 -8,23c-0.64938,25.99188 -2.63062,61.86 16,83c10.4541,11.86218 25.71741,9.7583 29,0c4.50897,-13.40407 0.28314,-38.24844 -12,-58c-12.78381,-20.55661 -29.69913,-31.4866 -41,-33c-3.9646,-0.53093 -9.13339,11.23349 -6,30c3.59683,21.54211 18.52927,43.91168 38,49c20.3407,5.31567 41.85281,-7.66719 45,-23c3.42404,-16.68161 -9.21945,-36.65407 -29,-48c-18.68509,-10.71761 -38.83151,-12.50134 -47,-3c-7.63049,8.87555 -8.25293,28.63304 2,45c10.1424,16.19049 33.35135,27.55431 57,23c15.37006,-2.96001 21.57401,-17.88525 17,-27c-6.03418,-12.02451 -24.74445,-19.53908 -52,-21c-24.98413,-1.33917 -50.40887,7.7632 -56,20c-3.35054,7.33307 7.10989,20.44981 28,24c29.57593,5.02631 63.76532,-2.15417 75,-19c6.20331,-9.30154 -3.32742,-19.25494 -20,-23c-23.49768,-5.27814 -52.86047,-2.55682 -80,8c-18.75563,7.29564 -27.23999,19.34116 -23,25c7.2453,9.66983 29.65057,9.84132 53,3c21.92557,-6.42413 36.63354,-19.93364 35,-30c-1.29144,-7.95816 -15.98898,-12.71819 -38,-12c-27.1517,0.88593 -58.62366,9.00752 -79,22c-7.77373,4.95673 -7.68234,12.70039 3,16c21.21461,6.55287 55.8064,5.7648 91,-6c26.77478,-8.95049 33.3483,-17.8821 31,-20c-6.84641,-6.17468 -23.41718,-3.82043 -49,3c-32.69583,8.71678 -69.48184,19.96303 -81,38c-4.96204,7.77034 5.90944,17.91696 28,18c36.12454,0.1358 71.11826,-8.21014 90,-26c8.48798,-7.99713 5.38318,-16.13225 -2,-18c-10.70804,-2.70886 -33.21442,1.49028 -60,16c-22.19203,12.02139 -39.88043,30.37231 -35,38c6.81728,10.65479 38.29782,6.41647 79,-11c35.3688,-15.13432 56.32742,-35.04555 52,-43c-5.34293,-9.82106 -30.75549,-8.36566 -56,1c-25.99924,9.64566 -50.35687,27.22992 -56,42c-2.87744,7.53128 6.17584,14.35394 19,12c18.47955,-3.39203 43.75836,-20.20415 59,-38c7.58603,-8.85732 5.02301,-14.79443 -3,-14c-12.58755,1.24641 -37.88611,16.67754 -63,39c-17.44879,15.50934 -19.21875,27.12128 -10,27c20.61374,-0.27118 50.41797,-15.82407 79,-36c17.99173,-12.70029 18.42719,-21.36754 14,-22c-11.06796,-1.58115 -29.3772,11.41518 -56,29c-26.3864,17.42865 -41.98145,31.86346 -39,36c4.71408,6.54044 26.57187,-1.83148 52,-15c26.65445,-13.80362 38.26071,-23.55193 36,-27c-3.33521,-5.08688 -17.78162,1.49629 -40,14c-27.07196,15.23511 -49.16554,32.44962 -47,43c0.85306,4.15601 12.13165,3.24625 31,-7c25.17996,-13.67371 57.75079,-28.23618 61,-42c0.72653,-3.07768 -10.34192,-3.68898 -29,6c-30.60178,15.89124 -59.63148,31.74539 -69,50c-2.32817,4.53647 5.35013,5.76892 17,0c19.67441,-9.74258 46.97137,-26.90216 62,-43c5.87036,-6.28799 3.59036,-9.7178 -4,-7c-21.15686,7.57541 -46.57581,28.17554 -70,50c-12.94418,12.06018 -12.83385,19.51608 -6,18c16.16005,-3.58508 43.93353,-21.45215 71,-44c16.29868,-13.57767 16.03839,-21.61996 8,-21c-21.77567,1.67944 -52.10062,18.12711 -79,40c-20.84772,16.95206 -21.37637,27.69254 -16,28c11.38315,0.651 33.84962,-14.72055 63,-35c21.67221,-15.077 29.17892,-27.29871 26,-29c-7.05341,-3.77487 -25.60382,9.18057 -53,30c-26.60976,20.2218 -40.64722,37.00128 -38,40c5.33562,6.0441 23.92216,-6.5929 52,-26c31.09686,-21.49384 52.79797,-37.31665 51,-47c-0.25818,-1.39044 -8.22708,-0.2706 -19,9c-21.4657,18.47223 -45.11795,37.11078 -56,57c-3.49435,6.38666 -0.44968,7.97525 9,2c24.68521,-15.60898 53.90283,-36.75925 79,-60c10.90756,-10.10074 8.59052,-13.46725 -1,-10c-25.6687,9.28 -56.65729,29.10123 -82,55c-12.45233,12.72556 -10.91214,20.49075 -4,19c12.74536,-2.74878 33.71213,-23.21295 57,-45c15.49088,-14.49252 16.11755,-23.21387 12,-23c-11.68893,0.60715 -29.00952,13.89505 -51,35c-17.86311,17.14377 -18.97325,26.22977 -18,26c6.52875,-1.54123 18.9274,-15.18176 40,-40c23.04758,-27.14423 33.78589,-48.98531 33,-62c-0.30734,-5.08975 -3.48065,-5.3857 -5,-3c-6.28748,9.87257 -12.32141,29.52274 -14,53c-1.00098,13.99994 7.16125,21.20374 11,18c8.58374,-7.16379 4.03748,-31.21048 -8,-57c-12.91223,-27.66359 -32.32965,-47.80533 -49,-61c-6.74515,-5.33882 -8.13274,-4.99115 -8,-4c1.5134,11.30087 10.01956,28.57144 22,48c10.19119,16.52695 21.85965,26.80315 26,24c4.45929,-3.01907 2.81009,-19.26114 -4,-39c-8.05518,-23.34769 -19.23425,-38.81244 -28,-50c-3.08377,-3.93578 -3.68925,-2.91975 -3,0c3.59619,15.23375 17.38095,32.43872 31,51c10.53268,14.35489 16.29291,19.70711 17,19c3.53552,-3.53554 -0.22974,-19.51656 -6,-36c-6.94635,-19.84308 -17.82184,-33.38477 -27,-40c-1.814,-1.30745 -3.12918,0.18204 0,16c4.42535,22.36998 15.17432,50.22009 33,70c11.40045,12.65027 17.04156,13.99913 17,13c-0.50043,-12.03119 -3.55228,-31.5939 -14,-55c-10.57416,-23.68938 -22.52731,-40.73094 -34,-49c-1.814,-1.30745 -2.797,1.255 3,18c8.80859,25.44423 24.5397,53.08795 42,75c9.26431,11.62637 11.34586,11.98 11,9c-2.01343,-17.34779 -10.06097,-40.88054 -24,-69c-12.34021,-24.89417 -25.51315,-42.83772 -35,-46c-0.94867,-0.31622 -1.76385,7.23343 5,28c9.89572,30.38214 22.07028,58.65036 42,80c9.18048,9.83456 13.33179,8.99081 13,3c-1.00153,-18.08305 -6.75998,-45.42932 -17,-73c-9.82928,-26.4648 -16.0983,-49.08966 -23,-47c-0.95709,0.28978 -0.19901,6.05348 5,25c7.7059,28.08237 15.4144,59.47757 30,82c7.72562,11.92957 11.35696,13.0583 12,8c2.2735,-17.88382 5.14218,-45.42708 0,-75c-5.03839,-28.9761 -21.44547,-45.44798 -29,-52c-1.06836,-0.9266 -1.30344,5.00271 -1,22c0.50009,28.01338 -0.66132,60.63895 6,88c4.56854,18.76509 12.67294,25.1412 15,23c11.20862,-10.31343 15.5343,-38.85866 16,-70c0.44955,-30.06323 -9.04102,-51.949 -19,-60c-5.21674,-4.2173 -8.74438,-2.10056 -10,10c-2.47922,23.89253 -3.479,50.72849 5,75c5.45908,15.62685 13.79639,20.12041 17,17c12.17792,-11.86165 20.56454,-37.00691 27,-67c4.6344,-21.59912 -3.43625,-34.43967 -10,-40c-1.07907,-0.91412 -4.11087,9.98013 -8,32c-6.17624,34.96933 -15.80099,72.82825 -16,99c-0.07642,10.04959 3.57599,10.34602 10,-1c14.3222,-25.29575 31.46414,-59.14717 36,-95c3.26334,-25.79439 -5.0202,-41.55097 -10,-42c-4.45407,-0.40163 -11.362,22.68008 -18,54c-7.56708,35.70349 -11.66138,66.96716 -2,77c5.28265,5.48576 16.12122,-3.35393 29,-27c16.47208,-30.24352 28.43027,-63.20789 25,-89c-2.20999,-16.61674 -12.6369,-24.16554 -16,-22c-10.15912,6.54159 -16.9877,34.66765 -29,72c-13.08517,40.66667 -23.15616,73.5517 -15,81c2.9537,2.69736 13.13995,-12.4388 26,-40c16.49057,-35.34206 29.74155,-71.76242 24,-93c-3.62564,-13.41099 -12.86215,-14.70679 -16,-10c-10.19803,15.29706 -19.12555,47.44817 -28,86c-6.6015,28.67787 -5.99567,45.20779 -1,45c12.03119,-0.50043 25.97223,-27.94449 44,-64c18.02777,-36.05551 23.27856,-63.81866 16,-75c-2.72775,-4.19038 -6.23392,-1.10812 -14,16c-14.43759,31.80498 -38.41611,74.70319 -51,113c-8.32968,25.34988 -5.40164,33.32999 -2,31c17.16757,-11.759 36.48688,-47.42563 56,-81c17.30487,-29.77484 21.23285,-52.93866 16,-58c-2.96365,-2.8665 -11.37631,9.81549 -23,34c-18.60696,38.7141 -40.16684,77.15179 -47,109c-1.89963,8.85388 3.84021,9.59695 15,-7c19.52164,-29.03284 42.93851,-65.82266 48,-98c3.26315,-20.74492 -6.24051,-34.07585 -13,-32c-14.21103,4.36423 -30.33533,36.24394 -48,69c-20.59161,38.18358 -31.27509,67.14996 -25,75c1.97452,2.47009 13.01923,-9.98538 32,-35c25.02539,-32.98076 55.2341,-65.81168 55,-87c-0.09439,-8.54349 -11.38748,-9.37625 -24,4c-24.78275,26.28339 -60.35214,63.40625 -81,103c-12.88083,24.69989 -9.673,40.47491 -2,38c18.18256,-5.86472 35.51569,-35.89899 39,-60c3.00818,-20.80748 -12.2554,-36.68011 -33,-41c-26.50537,-5.5195 -60.69041,1.01439 -86,21c-17.21239,13.59169 -18.11977,33.44003 -2,41c25.92603,12.159 68.49179,9.22726 100,-9c30.14713,-17.43991 40.58362,-43.85872 35,-61c-6.27142,-19.25278 -25.86777,-29.12363 -41,-29c-20.22308,0.16521 -40.97546,14.73997 -51,37c-10.55704,23.44246 -3.5984,49.7318 18,62c23.92361,13.58896 59.39606,12.28745 70,-1c7.11197,-8.91179 -2.9422,-28.82542 -24,-42c-33.39767,-20.89488 -87.65681,-31.75795 -133,-36c-30.88127,-2.88908 -39.86551,-0.43349 -37,3c12.81494,15.35504 43.18298,29.75067 76,44c34.24722,14.87033 65.96597,20.49948 77,21c0.99896,0.04532 -0.15442,-5.6487 -8,-15c-12.72549,-15.16779 -38.88028,-34.50905 -68,-46c-26.19453,-10.33664 -38.24709,-9.96899 -38,-9c3.09599,12.14145 24.69661,30.72119 58,45c34.87686,14.95343 75.50076,10.95847 75,20c-0.0553,0.99847 -3.86694,-2.20329 -16,-10c-20.77802,-13.35194 -49.67819,-26.23468 -82,-34c-19.83176,-4.76459 -26.53073,-3.69551 -25,0c7.03555,16.98532 40.83894,35.06778 77,47c37.08447,12.23691 64.75974,13.58054 67,9c1.96484,-4.0174 -11.32999,-13.61478 -29,-20c-26.23245,-9.47934 -60,-11 -82,-11c-8,0 -9.21588,4.24968 0,12c18.90244,15.89647 50.58057,28.40204 84,33c30.77454,4.23407 41.75742,-0.40674 40,-4c-5.00937,-10.24237 -29.56,-18.1788 -64,-24c-47.58478,-8.04297 -97.07368,-13.75137 -118,-4c-2.56374,1.19467 6.08945,14.3046 34,24c41.92706,14.56439 89.99649,17.896 118,17c10.04474,-0.32138 9.70215,-4.16895 2,-8c-15.00888,-7.46545 -41.89142,-11.49826 -73,-13c-31.96278,-1.54298 -56.74367,3.34897 -57,9c-0.35391,7.80222 28.78404,16.00455 66,19c37.89063,3.04977 73.70428,3.64462 76,-5c0.92542,-3.48477 -10.81033,-8.97748 -29,-12c-26.79871,-4.45306 -61.58891,-7.26721 -84,-2c-9.58762,2.25336 -8.39777,8.19171 2,11c26.35052,7.11691 62.62363,7.53461 95,0c20.63812,-4.80289 22.71555,-11.1134 17,-14c-13.85721,-6.99844 -42.25958,-7.48802 -79,-3c-41.66646,5.08975 -68.34314,16.75363 -66,24c3.58801,11.09622 36.16872,13.33261 69,10c39.60852,-4.02057 69.83948,-12.75729 75,-26c2.56744,-6.5885 -9.89493,-14.35426 -27,-15c-24.00372,-0.90616 -62.77582,5.45276 -87,26c-12.50777,10.60922 -8.82082,26.06378 12,30c26.54825,5.01901 65.69751,-1.31433 91,-19c13.90955,-9.72235 12.25171,-23.00974 2,-28c-14.82889,-7.21832 -41.48621,-7.00496 -64,6c-18.5314,10.70456 -23.92485,30.58472 -13,40c14.23218,12.26563 41.75479,13.41293 59,4c14.28885,-7.79929 19.34402,-25.08243 18,-36c-1.00754,-8.18442 -5.48593,-11.64548 -7,-10c-10.93903,11.88855 -21.21881,42.21725 -27,73c-4.62921,24.64896 -0.95709,36.71021 0,37c3.45084,1.04483 3.47095,-18.06 6,-38c3.30994,-26.09683 8.44629,-52.40128 5,-67c-1.0275,-4.35251 -3.42059,-1.80722 -10,17c-9.19861,26.29422 -26.97736,59.44672 -30,84c-1.46619,11.9101 4.86346,15.98145 9,13c13.0809,-9.42816 23.70749,-34.96176 29,-61c3.59088,-17.6665 -3.67767,-33.14786 -8,-32c-3.48477,0.92542 -7.259,17.9277 -13,39c-7.33191,26.91177 -14.82684,47.7612 -11,57c0.5412,1.30655 4.40262,-2.82162 10,-16c7.55026,-17.77621 11,-38 11,-52c0,-9 -0.83981,-8.9711 -2,-3c-3.51694,18.10059 -12,43.88922 -12,62c0,9.05539 5.17041,10.11017 9,4c10.47433,-16.71191 25.28442,-44.20889 30,-71c3.47131,-19.7218 -3.90991,-33.79465 -6,-33c-5.03363,1.91379 -5.0296,25.90875 -7,54c-2.10031,29.94308 -1.82666,51.22379 4,51c2.23444,-0.08582 6.2562,-15.74008 10,-37c4.53906,-25.77591 6.49997,-49.9454 -1,-66c-3.05209,-6.53336 -5.33829,-6.03506 -6,2c-2.0535,24.93558 -1.75626,52.90186 7,75c4.61578,11.6488 10.39627,14.15302 11,12c3.25125,-11.59436 4.81708,-31.60406 -1,-56c-5.51321,-23.12152 -18.20782,-38.93066 -26,-41c-0.96649,-0.25665 -2.96817,15.63666 6,40c9.89191,26.87286 26.73663,49.59702 39,58c1.84457,1.26392 2,-4 2,-19c0,-22 -3.34799,-47.87448 -14,-66c-8.71698,-14.83289 -17.4588,-17.30655 -18,-16c-6.50562,15.70596 4.17401,45.55322 20,71c15.42435,24.80099 31.00742,33.01468 33,32c5.42044,-2.76022 4.83304,-20.96558 -2,-40c-7.88046,-21.95218 -27.08694,-41.10492 -45,-50c-6.52045,-3.23785 -8.9686,-0.1524 -3,11c10.76001,20.10529 38.90091,40.90805 70,51c17.53873,5.6915 19.17538,3.93866 17,-2c-3.70453,-10.11319 -12.37253,-24.76147 -28,-37c-16.38269,-12.82996 -29.54071,-24.01907 -34,-21c-0.82806,0.56064 4.36209,8.99252 21,21c20.32065,14.66528 46.89343,21.99747 61,23c1.99496,0.14178 2.87314,-5.61716 -3,-13c-6.16293,-7.74713 -20.70981,-16.51462 -43,-20c-22.80963,-3.56659 -49.26816,-4.1525 -53,6c-2.51169,6.8331 14.24252,18.34106 45,27c29.44937,8.29068 56.4733,8.70633 60,3c3.68011,-5.95456 -1.87714,-16.98111 -9,-24c-9.68814,-9.54672 -26.91208,-13.99829 -44,-15c-18.96744,-1.11191 -37.95215,-0.06683 -40,6c-1.31863,3.90656 13.45499,13.60999 41,18c31.66284,5.0463 69.57333,2.0918 77,-8c3.02225,-4.10681 -2.33432,-12.14459 -12,-17c-13.28418,-6.6731 -35.98389,-8.18164 -66,-8c-22.02231,0.13327 -32.50192,3.1351 -32,4c4.04666,6.97311 25.93756,9.96976 58,10c33.06055,0.03119 54,-5.75735 54,-10c0,-4.24265 -10.68683,-7.32913 -25,-10c-21.71588,-4.05222 -54.03476,-3.39478 -82,-2c-20.0748,1.00125 -23.21411,2.27481 -22,3c8.96317,5.35364 28.00812,5.64938 54,5c20.01874,-0.50015 30.23557,-3.77637 30,-6c-0.67456,-6.36749 -14.7793,-11.09604 -37,-15c-31.76254,-5.58038 -77,-18 -77,-6c0,1 2.49557,2.24283 16,7c23.33322,8.21954 62.09561,12.69379 100,10c21.15982,-1.50378 24.50919,-4.73672 19,-8c-11.18503,-6.62531 -34.98828,-8.49994 -67,-9c-32.99597,-0.51544 -61.23108,-2.19164 -67,5c-0.62573,0.78003 4.81482,3.96252 18,6c24.78571,3.83005 64.35693,4.35803 105,-3c29.35568,-5.31454 38.58115,-12.41885 37,-14c-6.32455,-6.32455 -22.92911,-8.32893 -48,-9c-37.99954,-1.01712 -87.97992,2.40703 -114,17c-4.93387,2.76709 0.70798,10.61163 24,14c39.69452,5.77451 91.74274,3.08456 131,-8c19.48657,-5.50217 21.63574,-11.53976 19,-14c-5.89374,-5.50127 -23.00208,-7.34138 -51,-7c-41.00916,0.50003 -86.2626,4.3425 -117,17c-9.52005,3.92032 -7.09677,8.78577 6,10c30.88367,2.86331 78.55453,-1.85397 125,-15c24.34195,-6.8898 28.86536,-12.81145 26,-15c-5.02615,-3.83896 -20.00226,-4.34201 -46,-4c-38.00986,0.50005 -78.41116,4.14188 -105,11c-6.12411,1.57961 -5.28622,4.21291 5,6c18.74548,3.25679 54.57843,-1.01556 92,-13c29.53833,-9.45979 39.16943,-17.69922 37,-20c-3.6944,-3.91809 -15.05713,-5.65475 -39,-4c-36.25906,2.50597 -81.73004,8.86145 -112,26c-8.02286,4.54247 -2.11227,13.58707 15,14c29.06042,0.70125 73.21313,-11.1024 109,-34c21.57431,-13.80394 24.36584,-25.33646 22,-32c-1.95093,-5.4949 -5.03198,-6.25084 -6,-6c-9.96646,2.58257 -41.03271,23.93625 -82,45c-31.02484,15.95175 -38.97958,22.20107 -38,22c14.92047,-3.06255 44.00378,-21.5407 78,-46c28.90515,-20.79643 38.49829,-34.93796 39,-41c0.24744,-2.98978 -8.87131,4.18317 -33,21c-34.81631,24.2657 -74.81995,39.43942 -70,52c0.35828,0.93362 7.51215,-0.3188 25,-14c26.82513,-20.98601 52.40457,-41.94125 61,-60c3.54398,-7.44582 2.19733,-10.7977 -6,-3c-20.51889,19.51859 -57.95551,48.95636 -93,82c-28.81039,27.16547 -39.24985,44.46259 -36,47c7.09384,5.5387 27.93396,-9.93585 52,-32c26.06039,-23.89261 42.80423,-45.89171 39,-53c-2.1102,-3.94296 -10.64645,-0.48453 -18,10c-12.11307,17.27058 -21.97385,35.51422 -24,48c-0.64072,3.94836 1,4 4,-1c6,-10 16.48038,-22.63567 18,-32c0.8009,-4.93544 -2.63156,-6.02242 -8,-2c-15.28934,11.45583 -34.69214,31.68402 -41,48c-1.83868,4.75598 4.05112,6.30167 13,-2c10.41962,-9.66602 16.13049,-23.73901 13,-30c-2.23605,-4.47214 -8.51675,-4.39536 -13,2c-7.97455,11.37572 -16.08017,28.19849 -14,39c1.01837,5.28799 8.09552,7.08401 16,-2c11.83398,-13.59988 18.30365,-31.91823 14,-41c-3.63367,-7.66789 -11.97449,-7.97949 -16,-3c-8.4346,10.43349 -14.34833,28.20715 -12,39c1.71411,7.87793 11.40515,8.66769 20,0c13.67148,-13.78732 20.64902,-33.09009 16,-42c-4.26492,-8.17377 -16.8017,-9.77365 -25,-5c-11.62631,6.76968 -20.11096,24.66711 -16,37c3.16229,9.48685 15.29468,11.91934 22,6c10.81201,-9.54465 14.47742,-26.51489 11,-38c-2.08966,-6.90169 -9.52786,-10.23607 -14,-8c-8.94427,4.47214 -13.54184,22.04927 -12,36c1.14688,10.37711 8.96701,16.07471 15,12c9.44858,-6.38159 12.46619,-22.0899 11,-34c-1.00754,-8.18443 -7.32477,-13.94722 -13,-12c-10.78461,3.70029 -20.27005,20.91501 -19,35c0.56799,6.29901 5.24237,7.47385 7,1c3.93893,-14.5081 0.09933,-38.22366 -14,-60c-13.15649,-20.32011 -25.9259,-34.87291 -31,-32c-0.87021,0.49271 -1.97226,9.97064 -2,27c-0.02936,18.02773 7.26691,42.48314 23,49c11.12497,4.60812 25.47107,-5.4288 28,-22c2.71555,-17.79398 -10.47702,-38.87361 -31,-54c-14.08136,-10.37862 -25.61783,-11.71097 -23,0c4.09872,18.33577 19.63074,35.57822 39,51c16.9241,13.47495 27.41528,15.81125 28,15c1.84903,-2.56537 -7.40677,-12.71786 -23,-25c-20.27335,-15.96846 -43.65399,-30.57599 -55,-37c-1.94583,-1.10172 -1.43788,-0.66554 4,6c12.07706,14.80354 27.67538,34.49971 49,52c16.08545,13.2007 27.95517,14.45085 29,11c3.47742,-11.48511 -4.38565,-27.27052 -13,-46c-8.40921,-18.28346 -15.18799,-33.97398 -20,-31c-8.06998,4.98752 8,16 12,22l2,3"/>
 </g>

</svg>